<?xml version="1.0" encoding="utf-8"?>
<!-- Generator: Adobe Illustrator 24.3.0, SVG Export Plug-In . SVG Version: 6.00 Build 0)  -->
<svg version="1.2" baseProfile="tiny" id="Слой_1"
	 xmlns="http://www.w3.org/2000/svg" xmlns:xlink="http://www.w3.org/1999/xlink" x="0px" y="0px" viewBox="0 0 595.28 595.28"
	 overflow="visible" xml:space="preserve">
<g>
	<g>
		<linearGradient id="SVGID_1_" gradientUnits="userSpaceOnUse" x1="4.07" y1="362.6106" x2="592.0518" y2="362.6106">
			<stop  offset="0" style="stop-color:#FF00CC"/>
			<stop  offset="1" style="stop-color:#004F9E"/>
		</linearGradient>
		<path fill="url(#SVGID_1_)" d="M484.05,458.18c0.06-8.43,52.57-15.24,108.01-20.11c-36.17,0-72.33,0-108.5,0L483.4,245.7h-43.47
			c-3.83,0-6.93,3.1-6.93,6.93v59.69c0,1.47-0.47,2.91-1.34,4.1l-53.89,73.46l0.2,0.18l0.07,0.07l-0.23,0.14l-0.61,0.38l0.57-0.77
			l-27.38-26.7c-3.21-3.13-2.65-8.45,1.15-10.82c23.46-14.65,35.98-30.45,35.98-53.03c0-29.78-23.42-57.02-65-57.02
			c-8.5,0-16.35,1.18-23.45,3.38c-0.65,0.2-1.32,0.31-2,0.31h-27.48c-3.23,0-6.02,2.21-6.75,5.36
			c-9.07,39.24-30.31,123.9-37.71,173.02h-0.34c-7.34-41.21-29.55-126.91-41.91-173.25c-0.81-3.03-3.55-5.13-6.69-5.13h-34.67
			c-3.2,0-5.98,2.19-6.74,5.3c-13.71,56.17-35.19,133.88-43.8,175.52h-0.34c-2.69-25.28-12.38-71.72-33.51-175.26
			c-0.66-3.23-3.5-5.56-6.79-5.56H11.01c-4.52,0-7.83,4.26-6.72,8.64l55.98,219.95c0.78,3.07,3.55,5.22,6.72,5.22h41.62
			c3.14,0,5.89-2.1,6.7-5.14c12.6-47.47,32.51-122.1,40.71-162.25h0.34c7.95,38.72,27.42,110.57,39.84,162.09
			c0.75,3.11,3.54,5.3,6.74,5.3h41.59c3.13,0,5.87-2.1,6.69-5.12h0c1.22-4.51,6.46-6.55,10.4-4.03
			c11.79,7.55,27.38,12.25,47.09,12.25c30.71,0,49.81-9.9,65.99-25.68c2.72-2.65,7.03-2.7,9.74-0.04l20.74,20.35
			c1.3,1.27,3.04,1.98,4.85,1.98H588.2C496.24,469.9,484.02,462.25,484.05,458.18z M322.73,275.84c15.26,0,22.05,11.69,22.05,24.37
			c0,14.88-10.38,25.78-24.35,33.85c-11.15-10.79-19.94-20.87-19.94-33.08C300.48,285.77,309.11,275.84,322.73,275.84z
			 M314.38,442.12c-21.75,0-31.74-14.72-31.74-30.18c0-11.35,5.04-23.67,20.73-34.3l47.73,46.83
			C339.3,437.26,329.67,442.12,314.38,442.12z M433,443.77l-26.52-25.87L433,382.09V443.77z"/>
	</g>
	<path fill="#39A935" stroke="#FFFFFF" stroke-miterlimit="10" d="M412.59,260.06c-1.36,6.94-23.5,1.01-56.85,16.58
		c-24.84,11.59-25.89,21.11-42.4,26.01c-35.49,10.54-85.71-17.09-85.15-38.44c0.55-21.12,50.9-39.4,91.35-39.99
		C369.81,223.47,414.59,249.9,412.59,260.06z"/>
</g>
<path fill="#39A935" stroke="#FFFFFF" stroke-width="4" stroke-miterlimit="10" d="M352.42,131.29
	c-13.41,56.1-3.71,100.91,4.82,122.53c0.08,0.2,0.17,0.4,0.25,0.6c0.68,1.64-0.12,3.5-1.78,4.11c-9.15,3.36-23.31,7.17-40.78,6.7
	c-14.73-0.4-26.74-3.71-35-6.76c-1.33-0.49-2.17-1.82-2.04-3.23c5.31-60.36,22.32-103.19,37.58-127.03
	c23.11-36.09,51.19-60.73,72.17-76.11c1.27-0.93,2.98,0.45,2.08,1.65C376.77,70.74,360.65,96.88,352.42,131.29z"/>
</svg>
